<?xml version="1.0" encoding="UTF-8"?>
<svg width="422px" height="104px" viewBox="0 0 422 104" version="1.1" xmlns="http://www.w3.org/2000/svg" xmlns:xlink="http://www.w3.org/1999/xlink">
    <!-- Generator: Sketch 55.2 (78181) - https://sketchapp.com -->
    <title>logo notonlycss white</title>
    <desc>Created with Sketch.</desc>
    <g id="Page-1" stroke="none" stroke-width="1" fill="none" fill-rule="evenodd">
        <g id="logo-notonlycss-white" transform="translate(-5.000000, -12.000000)" fill="#FFFFFF">
            <g id="code-commit-regular" transform="translate(86.000000, 49.000000)" fill-rule="nonzero">
                <path d="M67,6.7 C74.1585312,6.7 80.8878437,9.48678125 85.9505312,14.5494687 C91.0132187,19.6121562 93.8,26.3414687 93.8,33.5 C93.8,40.6585312 91.0132187,47.3878437 85.9505312,52.4505312 C80.8878437,57.5132187 74.1585312,60.3 67,60.3 C59.8414687,60.3 53.1121562,57.5132187 48.0494687,52.4505312 C42.9867812,47.3878437 40.2,40.6585312 40.2,33.5 C40.2,26.3414687 42.9867812,19.6121562 48.0494687,14.5494687 C53.1121562,9.48678125 59.8414687,6.7 67,6.7 L67,6.7 Z M67,0 C48.4975313,0 33.5,14.9975312 33.5,33.5 C33.5,52.0024687 48.4975313,67 67,67 C85.5024688,67 100.5,52.0024687 100.5,33.5 C100.5,14.9975312 85.5024688,0 67,0 Z M131.4875,30.15 L107.059719,30.15 C107.151844,31.2596875 107.2,32.3756562 107.2,33.5 C107.2,34.6243437 107.151844,35.7403125 107.059719,36.85 L131.4875,36.85 C132.875656,36.85 134,35.7256562 134,34.3375 L134,32.6625 C134,31.2743437 132.875656,30.15 131.4875,30.15 Z M26.8,33.5 C26.8,32.3756562 26.8481562,31.2596875 26.9402812,30.15 L2.5125,30.15 C1.12434375,30.15 0,31.2743437 0,32.6625 L0,34.3375 C0,35.7256562 1.12434375,36.85 2.5125,36.85 L26.9402812,36.85 C26.8481562,35.7403125 26.8,34.6243437 26.8,33.5 L26.8,33.5 Z" id="Shape"></path>
            </g>
            <text id="Not-nly-CSS" font-family="Roboto-Regular, Roboto" font-size="70" font-weight="normal" letter-spacing="1">
                <tspan x="0" y="65">Not    nly CSS</tspan>
            </text>
        </g>
    </g>
</svg>